General
Complete name                    : FALTU - DVDScr - XviD - 1CDRip - VeDesi.avi
Format                           : AVI
Format/Info                      : Audio Video Interleave
File size                        : 693 MiB
Duration                         : 2h 0mn
Overall bit rate                 : 805 Kbps
Writing application              : VirtualDubMod 1.5.10.2 (build 2540/release)
Writing library                  : VirtualDubMod build 2540/release

Video
ID                               : 0
Format                           : MPEG-4 Visual
Format profile                   : Advanced Simple@L5
Format settings, BVOP            : 3
Format settings, QPel            : No
Format settings, GMC             : No warppoints
Format settings, Matrix          : Custom
Codec ID                         : XVID
Codec ID/Hint                    : XviD
Duration                         : 2h 0mn
Bit rate                         : 720 Kbps
Width                            : 688 pixels
Height                           : 288 pixels
Display aspect ratio             : 2.35:1
Frame rate                       : 25.000 fps
Color space                      : YUV
Chroma subsampling               : 4:2:0
Bit depth                        : 8 bits
Scan type                        : Progressive
Compression mode                 : Lossy
Bits/(Pixel*Frame)               : 0.145
Stream size                      : 620 MiB (89%)
Writing library                  : XviD 1.2.1 (UTC 2008-12-04)

Audio
ID                               : 1
Format                           : MPEG Audio
Format version                   : Version 2
Format profile                   : Layer 3
Mode                             : Joint stereo
Mode extension                   : Intensity Stereo + MS Stereo
Codec ID                         : 55
Codec ID/Hint                    : MP3
Duration                         : 2h 0mn
Bit rate mode                    : Constant
Bit rate                         : 80.0 Kbps
Channel(s)                       : 2 channels
Sampling rate                    : 24.0 KHz
Compression mode                 : Lossy
Stream size                      : 68.9 MiB (10%)
Alignment                        : Aligned on interleaves
Interleave, duration             : 1000 ms (25.00 video frames)
Interleave, preload duration     : 1008 ms



screen shots:

  
http://bollywoodreleases.info/images/04391460063002681937.png
 
http://bollywoodreleases.info/images/90454778963021352002.png
 
http://bollywoodreleases.info/images/61579307532012578658.png
 
http://bollywoodreleases.info/images/20345774162270075951.png